<svg width="1080" height="1080" viewBox="0 0 1080 1080" fill="none" xmlns="http://www.w3.org/2000/svg">
<path d="M232 765L925 764L578.5 986L232 765Z" fill="#16162C"/>
<path d="M232 765L925 764L578.5 130L232 765Z" fill="#16162C" fill-opacity="0.75"/>
<path d="M925 764L232 765L796.768 244.786C802.452 239.55 811.674 242.466 813.315 250.018L925 764Z" fill="#16162C" fill-opacity="0.5"/>
<path d="M232 765L925 764L360.563 244.577C354.878 239.346 345.661 242.262 344.019 249.811L232 765Z" fill="#16162C" fill-opacity="0.5"/>
<path d="M693.5 311L578.5 416.191V101L693.5 311Z" fill="#16162C" fill-opacity="0.75"/>
<path d="M464 311L578.5 416.207V101L464 311Z" fill="#16162C" fill-opacity="0.75"/>
</svg>
